<svg width="80" height="80" viewBox="0 0 80 80" fill="none" xmlns="http://www.w3.org/2000/svg">
<path d="M40.0033 6.66666C21.5866 6.66666 6.66994 21.5833 6.66994 40C6.66994 54.75 16.2116 67.2083 29.4616 71.625C31.1283 71.9167 31.7533 70.9167 31.7533 70.0417C31.7533 69.25 31.7116 66.625 31.7116 63.8333C23.3366 65.375 21.1699 61.7917 20.5033 59.9167C20.1283 58.9583 18.5033 56 17.0866 55.2083C15.9199 54.5833 14.2533 53.0417 17.0449 53C19.6699 52.9583 21.5449 55.4167 22.1699 56.4167C25.1699 61.4583 29.9616 60.0417 31.8783 59.1667C32.1699 57 33.0449 55.5417 34.0033 54.7083C26.5866 53.875 18.8366 51 18.8366 38.25C18.8366 34.625 20.1283 31.625 22.2533 29.2917C21.9199 28.4583 20.7533 25.0417 22.5866 20.4583C22.5866 20.4583 25.3783 19.5833 31.7533 23.875C34.42 23.125 37.2533 22.75 40.0867 22.75C42.92 22.75 45.7533 23.125 48.42 23.875C54.795 19.5417 57.5867 20.4583 57.5867 20.4583C59.42 25.0417 58.2533 28.4583 57.92 29.2917C60.045 31.625 61.3367 34.5833 61.3367 38.25C61.3367 51.0417 53.545 53.875 46.1283 54.7083C47.3367 55.75 48.3783 57.75 48.3783 60.875C48.3783 65.3333 48.3367 68.9167 48.3367 70.0417C48.3367 70.9167 48.9617 71.9583 50.6283 71.625C64.1967 67.0443 73.333 54.321 73.3367 40C73.3367 21.5833 58.42 6.66666 40.0033 6.66666Z" fill="white"/>
</svg>
