<svg width="80" height="80" viewBox="0 0 80 80" fill="none" xmlns="http://www.w3.org/2000/svg">
<path d="M40.0033 30C34.4787 30 30.0033 34.477 30.0033 40C30.0033 45.5243 34.4803 50 40.0033 50C45.5277 50 50.0033 45.523 50.0033 40C50.0033 34.4757 45.5263 30 40.0033 30ZM40.0033 23.3333C49.2047 23.3333 56.67 30.7903 56.67 40C56.67 49.2017 49.213 56.6667 40.0033 56.6667C30.8017 56.6667 23.3366 49.2097 23.3366 40C23.3366 30.7984 30.7936 23.3333 40.0033 23.3333ZM61.67 22.4972C61.67 24.7975 59.8007 26.6639 57.5033 26.6639C55.203 26.6639 53.3367 24.7947 53.3367 22.4972C53.3367 20.1997 55.2057 18.3333 57.5033 18.3333C59.7977 18.3304 61.67 20.1997 61.67 22.4972ZM40.0033 13.3333C31.755 13.3333 30.4106 13.3552 26.5742 13.526C23.9605 13.6487 22.2084 14.0002 20.5805 14.6322C19.1339 15.1933 18.0903 15.8633 16.9784 16.9752C15.8622 18.0913 15.1935 19.1321 14.6347 20.5794C14.0012 22.2111 13.6498 23.9604 13.5293 26.5705C13.3568 30.2507 13.3366 31.5368 13.3366 40C13.3366 48.2483 13.3584 49.5927 13.5292 53.4287C13.652 56.0413 14.004 57.796 14.6345 59.42C15.197 60.8687 15.8683 61.9147 16.9749 63.0213C18.0954 64.1403 19.1393 64.8113 20.5729 65.3647C22.2206 66.0017 23.9716 66.3537 26.5737 66.474C30.2539 66.6463 31.5401 66.6667 40.0033 66.6667C48.2517 66.6667 49.596 66.6447 53.432 66.474C56.039 66.3517 57.795 65.9987 59.4233 65.3687C60.868 64.8077 61.9173 64.134 63.0247 63.0283C64.1453 61.906 64.815 60.8647 65.369 59.4277C66.0043 57.786 66.357 56.0327 66.4773 53.4297C66.6497 49.7493 66.67 48.463 66.67 40C66.67 31.7517 66.648 30.4074 66.4773 26.5712C66.3547 23.9635 66.0017 22.205 65.371 20.5773C64.8113 19.1346 64.139 18.0878 63.028 16.9752C61.91 15.8572 60.872 15.1898 59.4237 14.6314C57.7933 13.9985 56.0413 13.6465 53.4327 13.526C49.7527 13.3535 48.4663 13.3333 40.0033 13.3333ZM40.0033 6.66666C49.0587 6.66666 50.1893 6.69999 53.745 6.86666C57.292 7.03056 59.7117 7.59166 61.8367 8.41666C64.0337 9.26389 65.8893 10.4083 67.742 12.2611C69.592 14.1139 70.7367 15.975 71.5867 18.1667C72.4087 20.2889 72.97 22.7111 73.1367 26.2583C73.295 29.8139 73.3367 30.9444 73.3367 40C73.3367 49.0557 73.3033 50.186 73.1367 53.7417C72.9727 57.289 72.4087 59.7083 71.5867 61.8333C70.7393 64.0307 69.592 65.886 67.742 67.739C65.8893 69.589 64.0253 70.7333 61.8367 71.5833C59.7117 72.4057 57.292 72.9667 53.745 73.1333C50.1893 73.2917 49.0587 73.3333 40.0033 73.3333C30.9477 73.3333 29.8171 73.3 26.2616 73.1333C22.7144 72.9693 20.2977 72.4057 18.1699 71.5833C15.9755 70.736 14.1171 69.589 12.2644 67.739C10.4116 65.886 9.26992 64.0223 8.41992 61.8333C7.59492 59.7083 7.03659 57.289 6.86992 53.7417C6.71159 50.186 6.66992 49.0557 6.66992 40C6.66992 30.9444 6.70326 29.8139 6.86992 26.2583C7.03379 22.7083 7.59492 20.2917 8.41992 18.1667C9.26712 15.9722 10.4116 14.1139 12.2644 12.2611C14.1171 10.4083 15.9783 9.26666 18.1699 8.41666C20.2949 7.59166 22.7116 7.03332 26.2616 6.86666C29.8171 6.70832 30.9477 6.66666 40.0033 6.66666Z" fill="white"/>
</svg>
