<svg width="80" height="80" viewBox="0 0 80 80" fill="none" xmlns="http://www.w3.org/2000/svg">
<path d="M61.1206 61.13H52.2356V47.2073C52.2356 43.8873 52.1683 39.615 47.6056 39.615C42.9733 39.615 42.2656 43.2277 42.2656 46.9623V61.13H33.3806V32.5H41.9156V36.4023H42.0306C43.2233 34.1523 46.1233 31.7775 50.4556 31.7775C59.4583 31.7775 61.1233 37.7027 61.1233 45.415L61.1206 61.13ZM23.3457 28.5825C20.4857 28.5825 18.1882 26.2675 18.1882 23.42C18.1882 20.575 20.4882 18.2625 23.3457 18.2625C26.1957 18.2625 28.5057 20.575 28.5057 23.42C28.5057 26.2675 26.1932 28.5825 23.3457 28.5825ZM27.8007 61.13H18.8907V32.5H27.8007V61.13ZM65.5656 10H14.4307C11.9832 10 10.0032 11.935 10.0032 14.3225V65.6777C10.0032 68.0673 11.9832 70 14.4307 70H65.5583C68.0033 70 70.0033 68.0673 70.0033 65.6777V14.3225C70.0033 11.935 68.0033 10 65.5583 10H65.5656Z" fill="white"/>
</svg>
