<svg width="80" height="80" viewBox="0 0 80 80" fill="none" xmlns="http://www.w3.org/2000/svg">
<path d="M61.2143 51.7843L56.5 47.0703L61.2143 42.3563C67.723 35.8477 67.723 25.2949 61.2143 18.7862C54.7053 12.2774 44.1526 12.2774 37.644 18.7862L32.9299 23.5002L28.2159 18.7862L32.9299 14.0721C42.0423 4.95989 56.816 4.95989 65.9283 14.0721C75.0403 23.1844 75.0403 37.9583 65.9283 47.0703L61.2143 51.7843ZM51.786 61.2127L47.072 65.9267C37.96 75.039 23.186 75.039 14.0737 65.9267C4.9615 56.8143 4.9615 42.0407 14.0737 32.9283L18.7878 28.2143L23.5018 32.9283L18.7878 37.6423C12.279 44.151 12.279 54.704 18.7878 61.2127C25.2965 67.7213 35.8493 67.7213 42.358 61.2127L47.072 56.4987L51.786 61.2127ZM49.429 25.8572L54.143 30.5713L30.5729 54.1417L25.8588 49.4273L49.429 25.8572Z" fill="white"/>
</svg>
